<svg width="176" height="42" viewBox="0 0 176 42" fill="none" xmlns="http://www.w3.org/2000/svg">
<path d="M24.4397 29.8197L21.737 36.6395C21.2716 37.7887 20.8962 38.5662 20.6109 38.9718C20.3256 39.3606 20.0102 39.5549 19.6649 39.5549C19.3346 39.5549 19.0418 39.3943 18.7865 39.0733C18.6214 38.8704 18.2385 38.1268 17.6379 36.8422C17.0523 35.5577 16.5643 34.4169 16.1739 33.4196L13.201 25.8901C12.7956 24.8423 12.3677 24.3183 11.9172 24.3183C11.4367 24.3183 11.1739 24.7662 11.1289 25.6619C11.0238 27.6563 10.9712 29.4985 10.9712 31.1887C10.9712 32.9464 11.0463 34.138 11.1965 34.7633C11.3016 35.1352 11.4367 35.4056 11.6019 35.5746C11.7821 35.7437 12.2551 36.0479 13.0208 36.4873C13.5163 36.7746 13.764 37.2732 13.764 37.983C13.764 39.876 11.6094 40.8225 7.30007 40.8225C3.66643 40.8225 1.84961 39.9014 1.84961 38.0591C1.84961 37.5858 1.9397 37.2479 2.11988 37.045C2.31508 36.8253 2.80306 36.5042 3.58385 36.0817C4.07934 35.8282 4.40968 35.4816 4.57484 35.0422C4.75501 34.6028 4.90517 33.7492 5.02529 32.4816C5.16042 31.1296 5.28805 28.9155 5.40817 25.8394C5.52829 22.7464 5.58835 20.1014 5.58835 17.9042C5.58835 15.1493 5.40067 13.2817 5.02529 12.3014C4.89015 11.9634 4.7325 11.7099 4.55231 11.5408C4.38715 11.3718 4.06433 11.1521 3.58385 10.8816C2.51778 10.307 1.98474 9.56337 1.98474 8.6507C1.98474 8.05914 2.17994 7.5183 2.57033 7.02817C2.97574 6.53802 3.50877 6.19154 4.16943 5.98873C4.83009 5.76901 5.70847 5.5831 6.80457 5.43098C7.91568 5.26197 8.85412 5.17746 9.61989 5.17746C11.5418 5.17746 12.9006 5.35493 13.6965 5.70986C14.0869 5.87887 14.3947 6.10704 14.6199 6.39436C14.8452 6.68169 15.1679 7.27324 15.5883 8.169L20.273 17.8788C20.7836 18.9437 21.1364 19.5943 21.3316 19.8309C21.5268 20.0675 21.7971 20.1859 22.1424 20.1859C22.4428 20.1859 22.7055 20.0592 22.9308 19.8056C23.1709 19.5521 23.4487 19.0789 23.7641 18.3859L26.9397 11.4141C27.3301 10.5183 27.5854 9.93521 27.7054 9.66478C28.4413 7.97464 29.1694 6.85069 29.8901 6.29295C30.8061 5.56619 32.4728 5.20281 34.8902 5.20281C39.1394 5.20281 41.264 6.29295 41.264 8.47323C41.264 8.96337 41.1815 9.36056 41.0163 9.66478C40.8512 9.9521 40.5133 10.307 40.0028 10.7296C39.3121 11.3211 38.8767 12.1746 38.6965 13.2902C38.3511 15.6225 38.1785 18.462 38.1785 21.8084C38.1785 26.1184 38.3586 29.8957 38.719 33.1408C38.8091 33.9352 38.9442 34.476 39.1244 34.7633C39.3196 35.0507 39.8076 35.4816 40.5884 36.0563C41.1289 36.462 41.3991 37.0028 41.3991 37.6788C41.3991 38.8619 40.701 39.6986 39.3046 40.1887C38.5839 40.4591 37.8256 40.6366 37.0298 40.7212C36.2341 40.8057 35.0103 40.8479 33.3586 40.8479C30.8211 40.8479 28.9293 40.6451 27.683 40.2394C26.3015 39.783 25.6109 39.0056 25.6109 37.907C25.6109 37.5013 25.7009 37.1718 25.8811 36.9183C26.0614 36.6478 26.5268 36.1661 27.2775 35.4732C27.6679 35.1183 27.9307 34.4338 28.0659 33.4196C28.216 32.4056 28.291 30.6816 28.291 28.2478C28.291 26.8958 28.231 26.0085 28.1109 25.5859C28.0058 25.1634 27.7731 24.9521 27.4126 24.9521C26.9923 24.9521 26.5869 25.2817 26.1965 25.9409C25.8061 26.583 25.2205 27.876 24.4397 29.8197ZM60.2055 5C64.0644 5 67.4353 6.24225 70.3181 8.72675C72.2701 10.4338 73.8541 12.6479 75.0704 15.369C76.2566 18.0732 76.8496 20.7774 76.8496 23.4817C76.8496 27.4704 75.6785 31.0366 73.3362 34.1803C71.3542 36.8507 68.7641 38.769 65.5659 39.9351C63.5989 40.6451 61.6244 41 59.6425 41C57.0448 41 54.5599 40.3916 52.1875 39.1746C49.3196 37.7042 47.0749 35.4816 45.4532 32.507C43.8766 29.6338 43.0884 26.4648 43.0884 23C43.0884 18.9774 44.1019 15.4282 46.129 12.3521C47.9307 9.61407 50.3557 7.6028 53.4037 6.3183C55.4457 5.43943 57.713 5 60.2055 5ZM58.0659 12.2761C56.8046 12.2761 55.8061 12.9099 55.0704 14.1774C54.4998 15.1239 54.2145 16.2479 54.2145 17.5492C54.2145 19.4591 54.5599 21.6732 55.2505 24.1915C55.9412 26.6929 56.8121 28.9155 57.8631 30.8591C58.3286 31.6874 58.8992 32.3464 59.5748 32.8366C60.2656 33.3268 60.9638 33.5719 61.6695 33.5719C62.8106 33.5719 63.7265 33.0902 64.4172 32.1267C65.1229 31.1633 65.4757 29.8957 65.4757 28.3239C65.4757 26.2788 65.1829 24.0732 64.5974 21.7071C64.0119 19.3409 63.2535 17.3211 62.3226 15.6479C61.7521 14.6169 61.0913 13.8056 60.3406 13.2141C59.5899 12.6225 58.8316 12.3098 58.0659 12.2761Z" fill="url(#paint0_linear_436_8)"/>
<path d="M92.2882 16C95.1156 16 97.5955 16.7731 99.7277 18.3193C101.257 19.4261 102.486 20.8665 103.413 22.6406C104.371 24.496 104.85 26.433 104.85 28.4511C104.85 31.9831 103.312 34.986 100.238 37.4599C97.3019 39.82 93.9414 41 90.156 41C86.4633 41 83.4736 39.8932 81.1869 37.6797C78.962 35.5312 77.8496 32.7317 77.8496 29.2812C77.8496 25.4401 79.2093 22.2987 81.9285 19.8574C84.7714 17.2858 88.2247 16 92.2882 16ZM90.4341 21.6397C89.7543 21.6397 89.2058 21.9082 88.7886 22.4453C88.3869 22.9661 88.1861 23.666 88.1861 24.5449C88.1861 25.5215 88.3561 26.8561 88.696 28.5487C89.0513 30.2252 89.4685 31.7145 89.9474 33.0166C90.4264 34.3513 91.2066 35.0185 92.2882 35.0185C93.6633 35.0185 94.3508 34.099 94.3508 32.2598C94.3508 30.8925 94.1731 29.3382 93.8178 27.5967C93.4779 25.8551 93.0608 24.4391 92.5663 23.3486C92.0564 22.2418 91.3457 21.6722 90.4341 21.6397Z" fill="url(#paint1_linear_436_8)"/>
<path d="M129.376 23.1234L123.591 35.7777C122.697 37.7361 121.938 39.1002 121.312 39.8701C120.687 40.6235 120.017 41 119.302 41C118.602 41 118.036 40.7156 117.605 40.1464C116.696 39.0082 115.899 37.7194 115.214 36.2798L108.87 22.7468C108.528 22.0103 108.193 21.483 107.866 21.165C107.553 20.8302 107.113 20.5792 106.547 20.4118C105.416 20.0436 104.85 19.3572 104.85 18.3529C104.85 17.3319 105.55 16.5871 106.95 16.1183C108.349 15.6497 110.561 15.4154 113.584 15.4154C116.116 15.4154 117.977 15.6246 119.168 16.0431C120.374 16.4447 120.977 17.0724 120.977 17.9261C120.977 18.5287 120.695 19.1062 120.129 19.6585C119.771 20.0268 119.54 20.303 119.436 20.4871C119.331 20.6713 119.28 20.9056 119.28 21.1902C119.28 21.7593 119.607 22.705 120.262 24.0273C120.918 25.3162 121.528 25.9606 122.094 25.9606C122.466 25.9606 122.772 25.8015 123.01 25.4835C123.248 25.1655 123.681 24.3453 124.305 23.0229C124.767 22.0521 124.998 21.3157 124.998 20.8135C124.998 20.4118 124.76 19.9348 124.284 19.3824C123.777 18.7798 123.524 18.2191 123.524 17.7001C123.524 16.8967 123.993 16.3192 124.931 15.9677C125.884 15.6162 127.44 15.4405 129.6 15.4405C132.638 15.4405 134.157 16.177 134.157 17.65C134.157 18.5035 133.613 19.1229 132.525 19.5079C131.677 19.8092 131.096 20.1356 130.784 20.4871C130.485 20.8386 130.017 21.7173 129.376 23.1234ZM147.157 16.9972V31.5847C147.157 32.7397 147.247 33.5849 147.424 34.1205C147.619 34.6562 147.998 35.15 148.564 35.6019C149.026 35.9701 149.331 36.2881 149.48 36.556C149.644 36.8071 149.725 37.1335 149.725 37.5352C149.725 39.6945 147.291 40.7741 142.421 40.7741C139.8 40.7741 137.723 40.5398 136.189 40.071C135.667 39.9037 135.243 39.6107 134.916 39.1923C134.603 38.7738 134.447 38.2968 134.447 37.7612C134.447 37.3092 134.529 36.9578 134.692 36.7066C134.856 36.4556 135.273 36.0538 135.943 35.5015C136.405 35.1164 136.733 34.4888 136.926 33.6184C137.12 32.748 137.217 31.4508 137.217 29.7268C137.217 29.1743 137.179 28.1449 137.105 26.6385C137.045 25.1153 137 24.2282 136.971 23.977C136.882 23.2908 136.465 22.7635 135.72 22.3953C134.797 21.9433 134.336 21.2738 134.336 20.3867C134.336 19.3321 134.939 18.5455 136.145 18.0265C137.812 17.3069 139.6 16.6959 141.505 16.1937C143.411 15.6916 144.885 15.4405 145.928 15.4405C146.748 15.4405 147.157 15.9594 147.157 16.9972ZM142.734 6C144.03 6 145.057 6.27619 145.817 6.82855C146.576 7.36418 146.955 8.0923 146.955 9.01291C146.955 10.3018 146.383 11.3228 145.236 12.076C143.419 13.2645 141.223 13.8586 138.646 13.8586C137.56 13.8586 136.696 13.6243 136.055 13.1557C135.191 12.553 134.76 11.7162 134.76 10.6449C134.76 9.20541 135.676 8.07556 137.507 7.25538C139.369 6.41846 141.111 6 142.734 6ZM171.683 29.0237H161.185C160.723 29.0237 160.492 29.2497 160.492 29.7016C160.492 30.7896 161.013 31.819 162.056 32.7899C163.114 33.744 164.245 34.221 165.451 34.221C166.166 34.221 166.955 34.0704 167.819 33.769C168.698 33.451 169.419 33.0661 169.986 32.6141C170.492 32.2124 170.894 32.0115 171.192 32.0115C171.579 32.0115 171.958 32.2793 172.332 32.8149C172.704 33.3506 172.89 33.9029 172.89 34.4721C172.89 35.6773 172.219 36.8406 170.879 37.962C168.512 39.9539 165.778 40.9499 162.681 40.9499C159.554 40.9499 156.934 39.9288 154.819 37.8867C153.791 36.8824 152.942 35.6689 152.273 34.2462C151.393 32.3547 150.954 30.3627 150.954 28.2705C150.954 25.4584 151.713 22.931 153.232 20.688C154.543 18.7463 156.211 17.2984 158.236 16.3444C159.755 15.6246 161.4 15.2648 163.173 15.2648C166.002 15.2648 168.407 16.1686 170.387 17.9764C171.386 18.8802 172.189 19.9515 172.801 21.1902C173.5 22.5961 173.85 23.9687 173.85 25.3078C173.85 26.3958 173.649 27.2913 173.247 27.9942C172.845 28.6806 172.323 29.0237 171.683 29.0237ZM161.765 24.3286H164.021C164.975 24.3286 165.451 23.8348 165.451 22.8472C165.451 21.9433 165.22 21.2069 164.758 20.6377C164.297 20.0686 163.694 19.7842 162.949 19.7842C162.115 19.7842 161.46 20.1524 160.983 20.8889C160.537 21.5751 160.314 22.2697 160.314 22.9728C160.314 23.475 160.418 23.8264 160.627 24.0273C160.85 24.2282 161.23 24.3286 161.765 24.3286Z" fill="url(#paint2_linear_436_8)"/>
<defs>
<linearGradient id="paint0_linear_436_8" x1="19.3496" y1="40.3157" x2="104.108" y2="40.3157" gradientUnits="userSpaceOnUse">
<stop stop-color="#062B9A"/>
<stop offset="1" stop-color="#0957E1"/>
</linearGradient>
<linearGradient id="paint1_linear_436_8" x1="52.3496" y1="40.3405" x2="104.85" y2="40.3405" gradientUnits="userSpaceOnUse">
<stop stop-color="#062B9A"/>
<stop offset="1" stop-color="#0957E1"/>
</linearGradient>
<linearGradient id="paint2_linear_436_8" x1="-17.2632" y1="40.2719" x2="111.649" y2="40.2719" gradientUnits="userSpaceOnUse">
<stop stop-color="#062B9A"/>
<stop offset="1" stop-color="#0957E1"/>
</linearGradient>
</defs>
</svg>
