<svg width="166" height="40" viewBox="0 0 166 40" fill="none" xmlns="http://www.w3.org/2000/svg">
<path d="M22.1289 26.1055L19.5508 31.8848C19.1068 32.8587 18.7487 33.5176 18.4766 33.8613C18.2044 34.1908 17.9036 34.3555 17.5742 34.3555C17.2591 34.3555 16.9798 34.2194 16.7363 33.9473C16.5788 33.7754 16.2135 33.1452 15.6406 32.0566C15.082 30.9681 14.6165 30.0013 14.2441 29.1562L11.4082 22.7754C11.0215 21.8874 10.6133 21.4434 10.1836 21.4434C9.72526 21.4434 9.47461 21.8229 9.43164 22.582C9.33138 24.2721 9.28125 25.8333 9.28125 27.2656C9.28125 28.7552 9.35286 29.765 9.49609 30.2949C9.59635 30.61 9.72526 30.8392 9.88281 30.9824C10.0547 31.1257 10.5059 31.3835 11.2363 31.7559C11.709 31.9993 11.9453 32.4219 11.9453 33.0234C11.9453 34.6276 9.88997 35.4297 5.7793 35.4297C2.31315 35.4297 0.580078 34.6491 0.580078 33.0879C0.580078 32.6868 0.666016 32.4004 0.837891 32.2285C1.02409 32.0423 1.48958 31.7702 2.23438 31.4121C2.70703 31.1973 3.02214 30.9036 3.17969 30.5312C3.35156 30.1589 3.49479 29.4355 3.60938 28.3613C3.73828 27.2155 3.86003 25.3392 3.97461 22.7324C4.08919 20.1113 4.14648 17.8698 4.14648 16.0078C4.14648 13.6732 3.96745 12.0905 3.60938 11.2598C3.48047 10.9733 3.33008 10.7585 3.1582 10.6152C3.00065 10.472 2.69271 10.2858 2.23438 10.0566C1.21745 9.56966 0.708984 8.93945 0.708984 8.16602C0.708984 7.66471 0.895182 7.20638 1.26758 6.79102C1.6543 6.37565 2.16276 6.08203 2.79297 5.91016C3.42318 5.72396 4.26107 5.56641 5.30664 5.4375C6.36654 5.29427 7.26172 5.22266 7.99219 5.22266C9.82552 5.22266 11.1217 5.37305 11.8809 5.67383C12.2533 5.81706 12.5469 6.01042 12.7617 6.25391C12.9766 6.4974 13.2845 6.9987 13.6855 7.75781L18.1543 15.9863C18.6413 16.8887 18.9779 17.4401 19.1641 17.6406C19.3503 17.8411 19.6081 17.9414 19.9375 17.9414C20.224 17.9414 20.4746 17.834 20.6895 17.6191C20.9186 17.4043 21.1836 17.0033 21.4844 16.416L24.5137 10.5078C24.8861 9.7487 25.1296 9.25456 25.2441 9.02539C25.946 7.5931 26.6406 6.64062 27.3281 6.16797C28.2018 5.55208 29.7917 5.24414 32.0977 5.24414C36.151 5.24414 38.1777 6.16797 38.1777 8.01562C38.1777 8.43099 38.099 8.76758 37.9414 9.02539C37.7839 9.26888 37.4616 9.56966 36.9746 9.92773C36.3158 10.429 35.9004 11.1523 35.7285 12.0977C35.3991 14.0742 35.2344 16.4805 35.2344 19.3164C35.2344 22.9688 35.4062 26.1699 35.75 28.9199C35.8359 29.5931 35.9648 30.0514 36.1367 30.2949C36.3229 30.5384 36.7884 30.9036 37.5332 31.3906C38.0488 31.7344 38.3066 32.1927 38.3066 32.7656C38.3066 33.7682 37.6406 34.4772 36.3086 34.8926C35.6211 35.1217 34.8978 35.2721 34.1387 35.3438C33.3796 35.4154 32.2122 35.4512 30.6367 35.4512C28.2161 35.4512 26.4115 35.2793 25.2227 34.9355C23.9049 34.5488 23.2461 33.89 23.2461 32.959C23.2461 32.6152 23.332 32.3359 23.5039 32.1211C23.6758 31.8919 24.1198 31.4837 24.8359 30.8965C25.2083 30.5957 25.459 30.0156 25.5879 29.1562C25.7311 28.2969 25.8027 26.8359 25.8027 24.7734C25.8027 23.6276 25.7454 22.8757 25.6309 22.5176C25.5306 22.1595 25.3086 21.9805 24.9648 21.9805C24.5638 21.9805 24.1771 22.2598 23.8047 22.8184C23.4323 23.3626 22.8737 24.4583 22.1289 26.1055ZM56.2461 5.07227C59.9271 5.07227 63.1426 6.125 65.8926 8.23047C67.7546 9.67708 69.2656 11.5534 70.4258 13.8594C71.5573 16.151 72.123 18.4427 72.123 20.7344C72.123 24.1146 71.0059 27.1367 68.7715 29.8008C66.8809 32.0638 64.4102 33.6895 61.3594 34.6777C59.4831 35.2793 57.5996 35.5801 55.709 35.5801C53.2311 35.5801 50.8607 35.0645 48.5977 34.0332C45.862 32.7871 43.7207 30.9036 42.1738 28.3828C40.6699 25.9479 39.918 23.2624 39.918 20.3262C39.918 16.9173 40.8848 13.9095 42.8184 11.3027C44.5371 8.98242 46.8503 7.27799 49.7578 6.18945C51.7057 5.44466 53.8685 5.07227 56.2461 5.07227ZM54.2051 11.2383C53.002 11.2383 52.0495 11.7754 51.3477 12.8496C50.8034 13.6517 50.5312 14.6042 50.5312 15.707C50.5312 17.3255 50.8607 19.2018 51.5195 21.3359C52.1784 23.4557 53.0091 25.3392 54.0117 26.9863C54.4557 27.6882 55 28.2467 55.6445 28.6621C56.3034 29.0775 56.9694 29.2852 57.6426 29.2852C58.7311 29.2852 59.6048 28.877 60.2637 28.0605C60.9368 27.2441 61.2734 26.1699 61.2734 24.8379C61.2734 23.1048 60.9941 21.2357 60.4355 19.2305C59.877 17.2253 59.1536 15.5137 58.2656 14.0957C57.7214 13.222 57.0911 12.5345 56.375 12.0332C55.6589 11.5319 54.9355 11.2669 54.2051 11.2383Z" fill="#171717"/>
<path d="M87.1152 13.5801C89.7363 13.5801 92.0352 14.2604 94.0117 15.6211C95.4297 16.5951 96.5684 17.8626 97.4277 19.4238C98.3158 21.0566 98.7598 22.7611 98.7598 24.5371C98.7598 27.6452 97.3346 30.2878 94.4844 32.4648C91.763 34.5417 88.6478 35.5801 85.1387 35.5801C81.7155 35.5801 78.944 34.6061 76.8242 32.6582C74.7617 30.7676 73.7305 28.304 73.7305 25.2676C73.7305 21.8874 74.9909 19.123 77.5117 16.9746C80.1471 14.7116 83.3483 13.5801 87.1152 13.5801ZM85.3965 18.543C84.7663 18.543 84.2578 18.7793 83.8711 19.252C83.4987 19.7103 83.3125 20.3262 83.3125 21.0996C83.3125 21.959 83.4701 23.1335 83.7852 24.623C84.1146 26.0983 84.5013 27.4089 84.9453 28.5547C85.3893 29.7292 86.1126 30.3164 87.1152 30.3164C88.39 30.3164 89.0273 29.5072 89.0273 27.8887C89.0273 26.6855 88.8626 25.3177 88.5332 23.7852C88.2181 22.2526 87.8314 21.0065 87.373 20.0469C86.9004 19.0729 86.2415 18.5716 85.3965 18.543Z" fill="#171717"/>
<path d="M122.289 20.3262L116.725 31.1543C115.865 32.8301 115.135 33.9974 114.533 34.6562C113.932 35.3008 113.287 35.623 112.6 35.623C111.926 35.623 111.382 35.3796 110.967 34.8926C110.093 33.9186 109.327 32.8158 108.668 31.584L102.566 20.0039C102.237 19.3737 101.915 18.9225 101.6 18.6504C101.299 18.3639 100.876 18.1491 100.332 18.0059C99.2435 17.6908 98.6992 17.1035 98.6992 16.2441C98.6992 15.3704 99.3724 14.7331 100.719 14.332C102.065 13.931 104.192 13.7305 107.1 13.7305C109.535 13.7305 111.325 13.9095 112.471 14.2676C113.631 14.6113 114.211 15.1484 114.211 15.8789C114.211 16.3945 113.939 16.8887 113.395 17.3613C113.051 17.6764 112.829 17.9128 112.729 18.0703C112.628 18.2279 112.578 18.4284 112.578 18.6719C112.578 19.1589 112.893 19.9681 113.523 21.0996C114.154 22.2025 114.741 22.7539 115.285 22.7539C115.643 22.7539 115.937 22.6178 116.166 22.3457C116.395 22.0736 116.811 21.3717 117.412 20.2402C117.856 19.4095 118.078 18.7793 118.078 18.3496C118.078 18.0059 117.849 17.5977 117.391 17.125C116.904 16.6094 116.66 16.1296 116.66 15.6855C116.66 14.998 117.111 14.5039 118.014 14.2031C118.93 13.9023 120.427 13.752 122.504 13.752C125.426 13.752 126.887 14.3822 126.887 15.6426C126.887 16.373 126.364 16.903 125.318 17.2324C124.502 17.4902 123.943 17.7695 123.643 18.0703C123.356 18.3711 122.905 19.123 122.289 20.3262ZM139.391 15.084V27.5664C139.391 28.5547 139.477 29.278 139.648 29.7363C139.835 30.1947 140.2 30.6172 140.744 31.0039C141.188 31.319 141.482 31.5911 141.625 31.8203C141.783 32.0352 141.861 32.3145 141.861 32.6582C141.861 34.5059 139.52 35.4297 134.836 35.4297C132.315 35.4297 130.317 35.2292 128.842 34.8281C128.34 34.6849 127.932 34.4342 127.617 34.0762C127.316 33.7181 127.166 33.3099 127.166 32.8516C127.166 32.4648 127.245 32.1641 127.402 31.9492C127.56 31.7344 127.961 31.3906 128.605 30.918C129.049 30.5885 129.365 30.0514 129.551 29.3066C129.737 28.5618 129.83 27.4518 129.83 25.9766C129.83 25.5039 129.794 24.623 129.723 23.334C129.665 22.0306 129.622 21.2715 129.594 21.0566C129.508 20.4694 129.107 20.0182 128.391 19.7031C127.503 19.3164 127.059 18.7435 127.059 17.9844C127.059 17.082 127.639 16.4089 128.799 15.9648C130.403 15.349 132.122 14.8262 133.955 14.3965C135.788 13.9668 137.206 13.752 138.209 13.752C138.997 13.752 139.391 14.196 139.391 15.084ZM135.137 5.67383C136.383 5.67383 137.371 5.91016 138.102 6.38281C138.832 6.84115 139.197 7.46419 139.197 8.25195C139.197 9.35482 138.646 10.2285 137.543 10.873C135.796 11.89 133.683 12.3984 131.205 12.3984C130.16 12.3984 129.329 12.1979 128.713 11.7969C127.882 11.2812 127.467 10.5651 127.467 9.64844C127.467 8.41667 128.348 7.44987 130.109 6.74805C131.9 6.0319 133.576 5.67383 135.137 5.67383ZM162.98 25.375H152.883C152.439 25.375 152.217 25.5684 152.217 25.9551C152.217 26.8861 152.718 27.7669 153.721 28.5977C154.738 29.4141 155.826 29.8223 156.986 29.8223C157.674 29.8223 158.433 29.6934 159.264 29.4355C160.109 29.1634 160.803 28.834 161.348 28.4473C161.835 28.1035 162.221 27.9316 162.508 27.9316C162.88 27.9316 163.245 28.1608 163.604 28.6191C163.962 29.0775 164.141 29.5501 164.141 30.0371C164.141 31.0684 163.496 32.0638 162.207 33.0234C159.93 34.7279 157.301 35.5801 154.322 35.5801C151.314 35.5801 148.794 34.7064 146.76 32.959C145.771 32.0996 144.955 31.0612 144.311 29.8438C143.465 28.2253 143.043 26.5208 143.043 24.7305C143.043 22.3242 143.773 20.1615 145.234 18.2422C146.495 16.5807 148.099 15.3418 150.047 14.5254C151.508 13.9095 153.09 13.6016 154.795 13.6016C157.516 13.6016 159.829 14.375 161.734 15.9219C162.694 16.6953 163.467 17.612 164.055 18.6719C164.728 19.875 165.064 21.0495 165.064 22.1953C165.064 23.1263 164.871 23.8926 164.484 24.4941C164.098 25.0814 163.596 25.375 162.98 25.375ZM153.441 21.3574H155.611C156.528 21.3574 156.986 20.9349 156.986 20.0898C156.986 19.3164 156.764 18.6862 156.32 18.1992C155.876 17.7122 155.296 17.4688 154.58 17.4688C153.778 17.4688 153.148 17.7839 152.689 18.4141C152.26 19.0013 152.045 19.5957 152.045 20.1973C152.045 20.627 152.145 20.9277 152.346 21.0996C152.561 21.2715 152.926 21.3574 153.441 21.3574Z" fill="#171717"/>
</svg>
